Coordinates
version=1
nRows=6
nColumns=63
inDegrees=yes

Units are S.I. units (second, meters, Newtons, ...)
If the header above contains a line with 'inDegrees', this indicates whether rotational values are in degrees (yes) or radians (no).

endheader
time	pelvis_tilt	pelvis_list	pelvis_rotation	pelvis_tx	pelvis_ty	pelvis_tz	hip_flexion_r	hip_adduction_r	hip_rotation_r	knee_angle_r	knee_angle_r_beta	ankle_angle_r	subtalar_angle_r	mtp_angle_r	hip_flexion_l	hip_adduction_l	hip_rotation_l	knee_angle_l	knee_angle_l_beta	ankle_angle_l	subtalar_angle_l	mtp_angle_l	L5_S1_Flex_Ext	L5_S1_Lat_Bending	L5_S1_axial_rotation	L4_L5_Flex_Ext	L4_L5_Lat_Bending	L4_L5_axial_rotation	L3_L4_Flex_Ext	L3_L4_Lat_Bending	L3_L4_axial_rotation	L2_L3_Flex_Ext	L2_L3_Lat_Bending	L2_L3_axial_rotation	L1_L2_Flex_Ext	L1_L2_Lat_Bending	L1_L2_axial_rotation	L1_T12_Flex_Ext	L1_T12_Lat_Bending	L1_T12_axial_rotation	Abs_r3	Abs_r2	Abs_r1	Abs_t1	Abs_t2	neck_flexion	neck_bending	neck_rotation	arm_flex_r	arm_add_r	arm_rot_r	elbow_flex_r	pro_sup_r	wrist_flex_r	wrist_dev_r	arm_flex_l	arm_add_l	arm_rot_l	elbow_flex_l	pro_sup_l	wrist_flex_l	wrist_dev_l
      1.50847458	      4.32994830	     -1.26960966	    120.00139900	      0.30097898	      0.55219474	      0.95691330	      9.10694358	     -2.29675959	    -18.39341790	     19.14733070	      0.33418396	     35.63953097	      8.14891333	      0.00000000	      5.67607907	      1.30516744	     -3.70087921	      8.39244638	      0.14647582	     29.03585282	     12.78983802	      0.00000000	     -0.21071381	      0.20606360	     -1.51676513	     -0.39131662	      0.27406459	     -1.61156295	     -0.34618172	      0.50102304	     -1.61156295	     -0.24082482	      0.50102304	     -1.32716948	     -0.19566885	      0.42020490	     -1.23237166	     -0.12040187	      0.31919252	     -1.13757384	     -1.50510770	      2.33103268	     -8.43579260	      0.00000000	      0.00000000	     21.63831802	     -2.31901636	      8.96046859	      4.06903935	    -14.73286155	    114.83743594	      7.80728768	      2.71673068	     -6.03187643	    -16.47338802	      7.78185207	     -9.61952411	    156.46527497	      0.96220515	      6.09149672	    -17.90312615	     -8.24169138
      1.52542373	      4.37474439	     -1.37944504	    120.06638937	      0.30070817	      0.55202525	      0.95667830	      9.09691279	     -2.35712019	    -18.77289366	     18.97890669	      0.33124441	     35.61739407	      8.67027552	      0.00000000	      5.60116907	      1.35460645	     -3.53469732	      8.01845771	      0.13994849	     28.97620367	     12.87711294	      0.00000000	     -0.19659547	      0.20925183	     -1.59569317	     -0.36509744	      0.27830494	     -1.69542400	     -0.32298669	      0.50877491	     -1.69542400	     -0.22468896	      0.50877491	     -1.39623153	     -0.18255855	      0.42670634	     -1.29650070	     -0.11233465	      0.32413109	     -1.19676988	     -1.40426176	      2.36709861	     -8.87476673	      0.00000000	      0.00000000	     21.81092603	     -2.21880573	      9.43535313	      4.31792888	    -14.60630789	    116.62493936	      7.44917074	      2.60097704	     -6.33732338	    -16.56942699	      7.64951283	     -9.58661193	    158.27318676	      0.97251935	      7.54093872	    -18.38452826	     -7.16068975
      1.54237288	      4.37945082	     -1.46468146	    120.05353303	      0.30040893	      0.55193122	      0.95632600	      9.02221961	     -2.46303088	    -19.27259357	     18.78745270	      0.32790291	     35.73578246	      9.56990260	      0.00000000	      5.44830863	      1.45386615	     -3.14587507	      7.60332304	      0.13270302	     28.89135810	     12.60394289	      0.00000000	     -0.18362991	      0.20800189	     -1.66665799	     -0.34101911	      0.27664251	     -1.77082412	     -0.30168558	      0.50573580	     -1.77082412	     -0.20987062	      0.50573580	     -1.45832575	     -0.17051873	      0.42415745	     -1.35415962	     -0.10492613	      0.32219493	     -1.24999350	     -1.31165009	      2.35295898	     -9.26945177	      0.00000000	      0.00000000	     21.89814273	     -2.07844105	      9.86773994	      4.59603930	    -14.47782301	    118.57961207	      7.09873595	      2.55207123	     -6.76198688	    -16.62058304	      7.41665356	     -9.56350835	    159.37514159	      0.97631976	      8.13564779	    -18.95765649	     -6.51224431
      1.55932203	      4.33597846	     -1.49722658	    120.03733682	      0.30026808	      0.55193988	      0.95592653	      8.89899734	     -2.46685951	    -19.10100419	     18.57878714	      0.32426101	     35.84732847	      9.59404393	      0.00000000	      5.27642945	      1.49262382	     -3.65627764	      7.30937855	      0.12757272	     28.98212270	     13.55517939	      0.00000000	     -0.17764866	      0.19961990	     -1.73410444	     -0.32991134	      0.26549447	     -1.84248596	     -0.29185899	      0.48535584	     -1.84248596	     -0.20303466	      0.48535584	     -1.51734138	     -0.16496455	      0.40706491	     -1.40895985	     -0.10150845	      0.30921123	     -1.30057833	     -1.26892665	      2.25814028	     -9.64456864	      0.00000000	      0.00000000	     21.88927687	     -1.88781834	     10.19798425	      4.85624377	    -14.27488486	    120.71663752	      6.62834549	      2.49975281	     -7.08635374	    -16.51087852	      7.13523240	     -9.60019930	    159.88942732	      0.96127789	      8.17694272	    -19.62247359	     -6.22411595
      1.57627119	      4.25431614	     -1.40475929	    120.42828014	      0.29941201	      0.55205063	      0.95583015	      8.45752838	     -2.69598183	    -20.68934953	     18.29489205	      0.31930610	     36.25453231	     11.46191774	      0.00000000	      4.99818439	      1.60865755	     -2.88158256	      7.02880380	      0.12267577	     28.97294279	     13.33023206	      0.00000000	     -0.18230609	      0.19182421	     -1.86573294	     -0.33856063	      0.25512620	     -1.98234125	     -0.29951067	      0.46640139	     -1.98234125	     -0.20835763	      0.46640139	     -1.63251632	     -0.16928943	      0.39116793	     -1.51590801	     -0.10416970	      0.29713570	     -1.39929971	     -1.30219414	      2.16995385	    -10.37664690	      0.00000000	      0.00000000	     21.76356808	     -1.76019346	     10.26703669	      5.13712873	    -14.17706503	    122.13345048	      6.47898230	      2.69147110	     -7.52921038	    -16.31605411	      6.76890393	     -9.62557645	    158.82717380	      0.97343523	      8.15735055	    -20.04377178	     -6.52908806
      1.59322034	      4.06631630	     -1.25056701	    120.58632429	      0.29924322	      0.55229735	      0.95558660	      8.00594247	     -2.76572775	    -20.96217752	     18.00525833	      0.31425104	     36.46370738	     11.79123387	      0.00000000	      4.58583387	      1.75264043	     -2.04046725	      6.69859778	      0.11691259	     28.80681808	     12.66406787	      0.00000000	     -0.20179168	      0.16802821	     -1.92164029	     -0.37474734	      0.22347751	     -2.04174281	     -0.33152356	      0.40854378	     -2.04174281	     -0.23062772	      0.40854378	     -1.68143525	     -0.18738376	      0.34264312	     -1.56133273	     -0.11530377	      0.26027569	     -1.44123022	     -1.44137782	      1.90076868	    -10.68758679	      0.00000000	      0.00000000	     21.52383252	     -1.58384251	      9.96205048	      5.24940445	    -13.86399675	    124.46959867	      5.89724031	      2.39587256	     -7.69884445	    -15.85562217	      6.56756423	     -9.73197677	    159.50259474	      1.00264203	      7.34595718	    -20.06380144	     -6.12635918
